<?xml version="1.0" encoding="utf-8"?>
<!-- Generator: Adobe Illustrator 12.0.1, SVG Export Plug-In . SVG Version: 6.00 Build 51448)  -->
<!DOCTYPE svg PUBLIC "-//W3C//DTD SVG 1.1//EN" "http://www.w3.org/Graphics/SVG/1.1/DTD/svg11.dtd" [
	<!ENTITY ns_svg "http://www.w3.org/2000/svg">
	<!ENTITY ns_xlink "http://www.w3.org/1999/xlink">
]>
<svg  version="1.1" id="Layer_1" xmlns="&ns_svg;" xmlns:xlink="&ns_xlink;" width="323.139" height="175.772"
	 viewBox="0 0 323.139 175.772" overflow="visible" enable-background="new 0 0 323.139 175.772" xml:space="preserve">
<g>
	<defs>
		<rect id="XMLID_1_" width="323.139" height="175.772"/>
	</defs>
	<clipPath id="XMLID_5_">
		<use xlink:href="#XMLID_1_" />
	</clipPath>
	<g clip-path="url(#XMLID_5_)">
		<defs>
			<rect id="XMLID_3_" x="3.364" y="12.416" width="313.022" height="110.494"/>
		</defs>
		<clipPath id="XMLID_6_">
			<use xlink:href="#XMLID_3_" />
		</clipPath>
		<path clip-path="url(#XMLID_6_)" fill="#212C61" d="M12.11,76.612c0,0.481,0,38.179,0,38.179s15.241,0,15.7,0
			c-0.037,0.434-0.563,6.91-0.594,7.276c-0.392,0-23.426,0-23.85,0c0-0.429,0-44.071,0-44.456
			C3.726,77.571,11.658,76.661,12.11,76.612"/>
		<path clip-path="url(#XMLID_6_)" fill="#212C61" d="M44.558,86.96c-2.798,0-6.879,0.513-9.551,1.022
			c-0.039,0.292-0.846,6.529-0.92,7.096c2.581-0.629,6.086-1.475,9.279-1.475c3.763,0,7.73,0.695,8.628,5.861l0.042,0.26
			l-6.286-0.144c-7.489,0-15.067,3.897-15.067,11.348c0,10.123,10.448,11.633,16.678,11.633c4.54,0,8.259-0.293,13.17-1.022
			c0-0.378,0-18.601,0-18.601C60.532,92.485,55.008,86.96,44.558,86.96 M51.99,115.557c-1.123,0.139-2.525,0.28-3.928,0.28
			c-5.678,0-8.481-2.033-8.481-4.837c0-2.247,2.242-4.626,7.009-4.626c1.961,0,3.787,0.138,5.4,0.138V115.557z"/>
		<path clip-path="url(#XMLID_6_)" fill="#212C61" d="M90.693,89.393c3.249-1.547,7.179-2.433,10.773-2.433
			c9.887,0,15.558,5.157,15.558,14.155c0,0,0,20.525,0,20.954c-0.406,0-8.131,0-8.537,0c0-0.429,0-20.745,0-20.745
			c0-4.57-2.859-7.299-7.649-7.299c-2.326,0-3.998,0.668-5.34,1.208l-0.172,0.067l0.037,0.181c0.288,1.282,0.417,3.093,0.417,4.229
			c0,0,0,21.93,0,22.358c-0.408,0-8.062,0-8.468,0c0-0.429,0-22.076,0-22.076c0-4.071-2.164-5.968-6.808-5.968
			c-1.953,0-3.675,0.336-5.725,0.774l-0.174,0.039c0,0,0,26.797,0,27.23c-0.406,0-8.062,0-8.468,0c0-0.429,0-32.913,0-33.259
			c3.589-0.805,8.938-1.851,14.575-1.851c4.647,0,7.448,1.166,9.783,2.428l0.097,0.054"/>
		<path clip-path="url(#XMLID_6_)" fill="#212C61" d="M134.004,86.961c-1.134,0-1.88,0-3.061,0.139l-0.246,0.027
			c0,0,0-14.393,0-14.865c-0.447,0.05-8.104,0.895-8.463,0.932c0,0.387,0,47.47,0,47.802c3.805,1.113,7.329,1.635,11.069,1.635
			c13.121,0,20.954-7.1,20.954-18.992C154.258,95.942,148.955,86.961,134.004,86.961 M134.215,115.283
			c-1.289,0-2.133-0.07-3.334-0.283l-0.183-0.032V94.405l0.19-0.027c0.995-0.145,1.583-0.145,2.555-0.145
			c7.373,0,12.136,3.803,12.136,9.686C145.579,110.929,141.224,115.283,134.215,115.283z"/>
		<path clip-path="url(#XMLID_6_)" fill="#212C61" d="M190.489,105.461c0-11.584-5.736-18.501-15.345-18.501
			c-10.068,0-17.101,7.148-17.101,17.379c0,12.762,10.355,18.572,19.976,18.572c3.288,0,6.812-0.354,9.479-0.948
			c0.032-0.292,0.849-7.181,0.921-7.784c-3.597,1.192-6.933,1.809-9.908,1.809c-6.476,0-11.322-3.918-11.788-9.529l-0.021-0.234
			c0,0,23.333,0,23.731,0C190.445,106.078,190.489,105.461,190.489,105.461 M167.43,100l0.072-0.275
			c0.937-3.548,3.8-5.841,7.29-5.841c3.373,0,5.753,2.136,6.524,5.854l0.056,0.262H167.43z"/>
		<path clip-path="url(#XMLID_6_)" fill="#212C61" d="M204.019,79.13c0,0.459,0,8.741,0,8.741s11.258,0,11.7,0
			c-0.021,0.418-0.311,6.195-0.329,6.573c-0.401,0-11.371,0-11.371,0v14.733c0,5.827,5.009,6.458,7.163,6.458
			c1.087,0,1.966-0.126,4.925-0.717c-0.081,0.554-1.014,6.826-1.053,7.111c-1.959,0.371-3.342,0.531-4.717,0.531
			c-3.484,0-14.854-0.911-14.854-12.614c0,0,0-29.561,0-29.95C195.851,79.959,203.576,79.175,204.019,79.13"/>
		<path clip-path="url(#XMLID_6_)" fill="#212C61" d="M228.863,72.262c0,0.475,0,18.781,0,18.781l0.353-0.273
			c2.055-1.604,5.28-3.74,9.542-3.74c7.491,0,12.328,4.677,12.328,11.911c0,0,0,22.698,0,23.127c-0.406,0-8.13,0-8.535,0
			c0-0.429,0-21.727,0-21.727c0-3.983-1.945-6.179-5.477-6.179c-3.023,0-6.191,2.175-8.15,4.208l-0.061,0.061c0,0,0,23.208,0,23.637
			c-0.405,0-8.201,0-8.606,0c0-0.429,0-48.486,0-48.871C220.618,73.157,228.414,72.31,228.863,72.262"/>
		<path clip-path="url(#XMLID_6_)" fill="#FAA71C" d="M295.37,24.716c-19.175,18.983-36.385,24.565-48.352,22.538
			c-16.188-2.75-27.977-7.014-61.721,0.721c13.936-13.635,26.431-17.649,35.145-16.169c12.004,2.032,20.708,5.201,45.931-0.655
			l-14.457-12.458c-16.402,15.362-28.232,13.292-31.453,12.833c-3.575-0.511-23.936-5.929-50.702,3.41
			c10.712-10.516,20.32-13.615,27.015-12.48c9.187,1.558,15.853,3.987,35.172-0.497l-11.071-9.544
			c-12.565,11.765-21.62,10.184-24.092,9.83c-2.745-0.396-18.459-4.579-39.09,2.698l46.552,40.133
			c22.299-20.882,38.372-18.071,42.757-17.442c4.881,0.693,32.77,8.12,69.384-4.794"/>
	</g>
</g>
</svg>
